<svg xmlns="http://www.w3.org/2000/svg" width="200" height="200" fill="none" viewBox="0 0 100 100"><defs><linearGradient id="a" x1="0" x2="100" y1="0" y2="100" gradientUnits="userSpaceOnUse"><stop offset="0" stop-color="#2de3e8"/><stop offset=".5" stop-color="#46aef7"/><stop offset="1" stop-color="#6942ef"/></linearGradient></defs><g fill="url(#a)"><path d="M50 50C28 50 10 32 8 8c24 2 42 20 42 42"/><path d="M50 50c0-22 18-40 42-42-2 24-20 42-42 42"/><path d="M50 50c22 0 40 18 42 42-24-2-42-20-42-42"/><path d="M50 50c0 22-18 40-42 42 2-24 20-42 42-42"/></g></svg>