<svg xmlns="http://www.w3.org/2000/svg" style="display: none;">
  <symbol id="icon-close" viewBox="0 0 44 44">
    <path d="M22 25.407 10.076 37.33c-.446.446-1.014.669-1.703.669-.69 0-1.258-.223-1.704-.67C6.223 36.886 6 36.318 6 35.628c0-.69.223-1.257.67-1.703L18.592 22 6.67 10.076C6.223 9.63 6 9.062 6 8.373c0-.69.223-1.258.67-1.704C7.114 6.223 7.682 6 8.372 6c.69 0 1.257.223 1.703.67L22 18.592 33.924 6.67C34.37 6.223 34.938 6 35.627 6c.69 0 1.258.223 1.704.67.446.445.669 1.013.669 1.703 0 .69-.223 1.257-.67 1.703L25.408 22 37.33 33.924c.446.446.669 1.014.669 1.703 0 .69-.223 1.258-.67 1.704-.445.446-1.013.669-1.703.669-.69 0-1.257-.223-1.703-.67L22 25.408Z"/>
  </symbol>

  <symbol id="icon-arrow-prev-lg" viewBox="0 0 104 104">
    <path d="M66.76 84.935a2.928 2.928 0 0 1-1.212-.246 2.985 2.985 0 0 1-1.01-.728l-28.585-29.22a3.265 3.265 0 0 1 0-4.611l28.584-29.156c1.27-1.299 3.24-1.299 4.51 0a3.265 3.265 0 0 1 0 4.61L42.686 52.468l26.361 26.948a3.265 3.265 0 0 1 0 4.61c-.635.65-1.46.974-2.223.974l-.064-.065Z"/>
  </symbol>

  <symbol id="icon-arrow-next-lg" viewBox="0 0 104 104">
    <path d="M38.24 84.935c.416.005.83-.079 1.212-.246a2.985 2.985 0 0 0 1.01-.728l28.585-29.22a3.265 3.265 0 0 0 0-4.611L40.463 20.974c-1.27-1.299-3.24-1.299-4.51 0a3.265 3.265 0 0 0 0 4.61l26.361 26.884-26.361 26.948a3.265 3.265 0 0 0 0 4.61c.635.65 1.46.974 2.223.974l.064-.065Z"/>
  </symbol>

  <symbol id="icon-telegram" viewBox="0 0 24 24">
    <path d="M12 2C6.48 2 2 6.48 2 12s4.48 10 10 10 10-4.48 10-10S17.52 2 12 2Zm4.64 6.8c-.15 1.58-.8 5.42-1.13 7.19-.14.75-.42 1-.68 1.03-.58.05-1.02-.38-1.58-.75-.88-.58-1.38-.94-2.23-1.5-.99-.65-.35-1.01.22-1.59.15-.15 2.71-2.48 2.76-2.69a.2.2 0 0 0-.05-.18c-.06-.05-.14-.03-.21-.02-.09.02-1.49.95-4.22 2.79-.4.27-.76.41-1.08.4-.36-.01-1.04-.2-1.55-.37-.63-.2-1.12-.31-1.08-.66.02-.18.27-.36.74-.55 2.92-1.27 4.86-2.11 5.83-2.51 2.78-1.16 3.35-1.36 3.73-1.36.08 0 .27.02.39.12.1.08.13.19.14.27-.01.06.01.24 0 .38Z"/>
  </symbol>

  <symbol id="icon-whatsapp" viewBox="0 0 24 24">
    <path d="M19.05 4.91A9.82 9.82 0 0 0 12.04 2c-5.46 0-9.91 4.45-9.91 9.91 0 1.75.46 3.45 1.32 4.95L2.05 22l5.25-1.38c1.45.79 3.08 1.21 4.74 1.21 5.46 0 9.91-4.45 9.91-9.91 0-2.65-1.03-5.14-2.9-7.01Zm-7.01 15.24c-1.48 0-2.93-.4-4.2-1.15l-.3-.18-3.12.82.83-3.04-.2-.31a8.26 8.26 0 0 1-1.26-4.38c0-4.54 3.7-8.24 8.24-8.24 2.2 0 4.27.86 5.82 2.42a8.18 8.18 0 0 1 2.41 5.83c.02 4.54-3.68 8.23-8.22 8.23Zm4.52-6.16c-.25-.12-1.47-.72-1.69-.81-.23-.08-.39-.12-.56.12-.17.25-.64.81-.78.97-.14.17-.29.19-.54.06-.25-.12-1.05-.39-1.99-1.23-.74-.66-1.23-1.47-1.38-1.72-.14-.25-.02-.38.11-.51.11-.11.25-.29.37-.43s.17-.25.25-.41c.08-.17.04-.31-.02-.43s-.56-1.34-.76-1.84c-.2-.48-.41-.42-.56-.43h-.48c-.17 0-.43.06-.66.31-.22.25-.86.85-.86 2.07 0 1.22.89 2.4 1.01 2.56.12.17 1.75 2.67 4.23 3.74.59.26 1.05.41 1.41.52.59.19 1.13.16 1.56.1.48-.07 1.47-.6 1.67-1.18.21-.58.21-1.07.14-1.18-.07-.11-.22-.16-.47-.28Z"/>
  </symbol>

  <symbol id="icon-email" viewBox="0 0 24 24">
    <path d="M21.334 4H2.666a1.333 1.333 0 0 0-1.333 1.333v13.334A1.333 1.333 0 0 0 2.667 20h18.666a1.333 1.333 0 0 0 1.334-1.333V5.333A1.333 1.333 0 0 0 21.333 4Zm-1.027 14.667H3.773L8.44 13.84l-.96-.927-4.813 4.98V6.347l8.287 8.246a1.333 1.333 0 0 0 1.88 0l8.5-8.453v11.667L16.427 12.9l-.94.94 4.82 4.827ZM3.54 5.333h16.713l-8.36 8.314L3.54 5.333Z"/>
  </symbol>

  <symbol id="icon-menu" viewBox="0 0 24 24">
    <path d="M20 17.5a1.5 1.5 0 0 1 .144 2.993L20 20.5H4a1.5 1.5 0 0 1-.144-2.993L4 17.5h16Zm0-7a1.5 1.5 0 1 1 0 3H4a1.5 1.5 0 1 1 0-3h16Zm0-7a1.5 1.5 0 0 1 0 3H4a1.5 1.5 0 0 1 0-3h16Z"/>
  </symbol>

  <symbol id="icon-calendar" viewBox="0 0 24 24">
    <path d="M19 19H5V8h14m-3-7v2H8V1H6v2H5c-1.11 0-2 .89-2 2v14a2 2 0 0 0 2 2h14a2 2 0 0 0 2-2V5a2 2 0 0 0-2-2h-1V1m-1 11h-5v5h5v-5Z"/>
  </symbol>

  <symbol id="icon-arrow-prev" viewBox="0 0 24 24">
    <path d="M12.727 3.687A.999.999 0 0 0 11.972 2a1 1 0 0 0-.699.313l-8.5 9a1 1 0 0 0 0 1.374l8.5 9a1.002 1.002 0 0 0 1.736-.654.999.999 0 0 0-.282-.718L4.875 12l7.852-8.313Z"/>
  </symbol>

  <symbol id="icon-arrow-next" viewBox="0 0 24 24">
    <path d="M11.273 3.687A.999.999 0 0 1 12.028 2a1 1 0 0 1 .699.313l8.5 9a1 1 0 0 1 0 1.374l-8.5 9a1.002 1.002 0 0 1-1.736-.654.999.999 0 0 1 .282-.718L19.125 12l-7.852-8.313Z"/>
  </symbol>

  <symbol id="icon-share" viewBox="0 0 32 32">
    <path fill="none" stroke="currentColor" stroke-linecap="round" stroke-linejoin="round" stroke-width="2" d="m20 6.667-4-4m0 0-4 4m4-4v16M8 12H5.335v12a2.667 2.667 0 0 0 2.667 2.666h16A2.667 2.667 0 0 0 26.667 24V12h-2.666"/>
  </symbol>
</svg>
